<?xml version="1.0" encoding="UTF-8" standalone="no"?>
<!-- Created with Inkscape (http://www.inkscape.org/) -->

<svg
   xmlns:dc="http://purl.org/dc/elements/1.1/"
   xmlns:cc="http://creativecommons.org/ns#"
   xmlns:rdf="http://www.w3.org/1999/02/22-rdf-syntax-ns#"
   xmlns:svg="http://www.w3.org/2000/svg"
   xmlns="http://www.w3.org/2000/svg"
   xmlns:xlink="http://www.w3.org/1999/xlink"
   xmlns:sodipodi="http://sodipodi.sourceforge.net/DTD/sodipodi-0.dtd"
   xmlns:inkscape="http://www.inkscape.org/namespaces/inkscape"
   version="1.0"
   id="svg2"
   sodipodi:version="0.32"
   inkscape:version="0.91 r13725"
   sodipodi:docname="grupy-sanca.svg"
   width="600pt"
   height="600pt">
  <metadata
     id="metadata371">
    <rdf:RDF>
      <cc:Work
         rdf:about="">
        <dc:format>image/svg+xml</dc:format>
        <dc:type
           rdf:resource="http://purl.org/dc/dcmitype/StillImage" />
        <dc:title></dc:title>
      </cc:Work>
    </rdf:RDF>
  </metadata>
  <sodipodi:namedview
     inkscape:window-height="1056"
     inkscape:window-width="1920"
     inkscape:pageshadow="2"
     inkscape:pageopacity="0.0"
     guidetolerance="10.0"
     gridtolerance="10.0"
     objecttolerance="10.0"
     borderopacity="1.0"
     bordercolor="#666666"
     pagecolor="#ffffff"
     id="base"
     inkscape:zoom="0.75878363"
     inkscape:cx="497.09909"
     inkscape:cy="191.33177"
     inkscape:window-x="0"
     inkscape:window-y="24"
     inkscape:current-layer="svg2"
     width="210mm"
     height="40mm"
     units="mm"
     showgrid="false"
     inkscape:window-maximized="1" />
  <defs
     id="defs4">
    <linearGradient
       id="linearGradient2795">
      <stop
         style="stop-color:#b8b8b8;stop-opacity:0.49803922;"
         offset="0"
         id="stop2797" />
      <stop
         style="stop-color:#7f7f7f;stop-opacity:0;"
         offset="1"
         id="stop2799" />
    </linearGradient>
    <linearGradient
       id="linearGradient2787">
      <stop
         style="stop-color:#7f7f7f;stop-opacity:0.5;"
         offset="0"
         id="stop2789" />
      <stop
         style="stop-color:#7f7f7f;stop-opacity:0;"
         offset="1"
         id="stop2791" />
    </linearGradient>
    <linearGradient
       id="linearGradient3676">
      <stop
         style="stop-color:#b2b2b2;stop-opacity:0.5;"
         offset="0"
         id="stop3678" />
      <stop
         style="stop-color:#b3b3b3;stop-opacity:0;"
         offset="1"
         id="stop3680" />
    </linearGradient>
    <linearGradient
       id="linearGradient3236">
      <stop
         style="stop-color:#f4f4f4;stop-opacity:1"
         offset="0"
         id="stop3244" />
      <stop
         style="stop-color:white;stop-opacity:1"
         offset="1"
         id="stop3240" />
    </linearGradient>
    <linearGradient
       id="linearGradient4671">
      <stop
         style="stop-color:#ffd43b;stop-opacity:1;"
         offset="0"
         id="stop4673" />
      <stop
         style="stop-color:#ffe873;stop-opacity:1"
         offset="1"
         id="stop4675" />
    </linearGradient>
    <linearGradient
       id="linearGradient4689">
      <stop
         style="stop-color:#5a9fd4;stop-opacity:1;"
         offset="0"
         id="stop4691" />
      <stop
         style="stop-color:#306998;stop-opacity:1;"
         offset="1"
         id="stop4693" />
    </linearGradient>
    <linearGradient
       x1="224.23996"
       y1="144.75717"
       x2="-65.308502"
       y2="144.75717"
       id="linearGradient2987"
       xlink:href="#linearGradient4671"
       gradientUnits="userSpaceOnUse"
       gradientTransform="translate(100.2702,99.61116)" />
    <linearGradient
       x1="172.94208"
       y1="77.475983"
       x2="26.670298"
       y2="76.313133"
       id="linearGradient2990"
       xlink:href="#linearGradient4689"
       gradientUnits="userSpaceOnUse"
       gradientTransform="translate(100.2702,99.61116)" />
    <linearGradient
       inkscape:collect="always"
       xlink:href="#linearGradient4689"
       id="linearGradient2587"
       gradientUnits="userSpaceOnUse"
       gradientTransform="translate(100.2702,99.61116)"
       x1="172.94208"
       y1="77.475983"
       x2="26.670298"
       y2="76.313133" />
    <linearGradient
       inkscape:collect="always"
       xlink:href="#linearGradient4671"
       id="linearGradient2589"
       gradientUnits="userSpaceOnUse"
       gradientTransform="translate(100.2702,99.61116)"
       x1="224.23996"
       y1="144.75717"
       x2="-65.308502"
       y2="144.75717" />
    <linearGradient
       inkscape:collect="always"
       xlink:href="#linearGradient4689"
       id="linearGradient2248"
       gradientUnits="userSpaceOnUse"
       gradientTransform="translate(100.2702,99.61116)"
       x1="172.94208"
       y1="77.475983"
       x2="26.670298"
       y2="76.313133" />
    <linearGradient
       inkscape:collect="always"
       xlink:href="#linearGradient4671"
       id="linearGradient2250"
       gradientUnits="userSpaceOnUse"
       gradientTransform="translate(100.2702,99.61116)"
       x1="224.23996"
       y1="144.75717"
       x2="-65.308502"
       y2="144.75717" />
    <linearGradient
       inkscape:collect="always"
       xlink:href="#linearGradient4671"
       id="linearGradient2255"
       gradientUnits="userSpaceOnUse"
       gradientTransform="matrix(0.562541,0,0,0.567972,-11.5974,-7.60954)"
       x1="224.23996"
       y1="144.75717"
       x2="-65.308502"
       y2="144.75717" />
    <linearGradient
       inkscape:collect="always"
       xlink:href="#linearGradient4689"
       id="linearGradient2258"
       gradientUnits="userSpaceOnUse"
       gradientTransform="matrix(0.562541,0,0,0.567972,-11.5974,-7.60954)"
       x1="172.94208"
       y1="76.176224"
       x2="26.670298"
       y2="76.313133" />
    <radialGradient
       inkscape:collect="always"
       xlink:href="#linearGradient2795"
       id="radialGradient2801"
       cx="61.518883"
       cy="132.28575"
       fx="61.518883"
       fy="132.28575"
       r="29.036913"
       gradientTransform="matrix(1,0,0,0.177966,0,108.7434)"
       gradientUnits="userSpaceOnUse" />
    <linearGradient
       inkscape:collect="always"
       xlink:href="#linearGradient4671"
       id="linearGradient1475"
       gradientUnits="userSpaceOnUse"
       gradientTransform="matrix(1.3695303,0,0,1.3827523,203.18992,119.47736)"
       x1="150.96111"
       y1="192.35176"
       x2="112.03144"
       y2="137.27299" />
    <linearGradient
       inkscape:collect="always"
       xlink:href="#linearGradient4689"
       id="linearGradient1478"
       gradientUnits="userSpaceOnUse"
       gradientTransform="matrix(1.3695303,0,0,1.3827523,203.18992,119.47736)"
       x1="26.648937"
       y1="20.603781"
       x2="135.66525"
       y2="114.39767" />
    <radialGradient
       inkscape:collect="always"
       xlink:href="#linearGradient2795"
       id="radialGradient1480"
       gradientUnits="userSpaceOnUse"
       gradientTransform="matrix(4.2581534e-8,-0.58416122,2.5676347,9.2306814e-7,35.913238,494.79716)"
       cx="61.518883"
       cy="132.28575"
       fx="61.518883"
       fy="132.28575"
       r="29.036913" />
  </defs>
  <text
     xml:space="preserve"
     style="font-style:normal;font-weight:normal;font-size:40px;line-height:125%;font-family:sans-serif;letter-spacing:0px;word-spacing:0px;fill:#000000;fill-opacity:1;stroke:none;stroke-width:1px;stroke-linecap:butt;stroke-linejoin:miter;stroke-opacity:1"
     x="52.717674"
     y="576.18274"
     id="text3522"
     sodipodi:linespacing="125%"><tspan
       sodipodi:role="line"
       id="tspan3524"
       x="52.717674"
       y="576.18274"
       style="font-style:normal;font-variant:normal;font-weight:normal;font-stretch:normal;font-size:137.5px;font-family:Ubuntu;-inkscape-font-specification:Ubuntu;letter-spacing:-10px;fill:#646464;fill-opacity:1"
       dx="0">grupy-sanca</tspan></text>
  <path
     style="fill:url(#linearGradient1478);fill-opacity:1"
     d="m 373.38861,147.96953 c -11.15912,0.0519 -21.8158,1.00354 -31.19259,2.66278 -27.62286,4.88004 -32.63809,15.09441 -32.63809,33.93144 l 0,24.87798 65.27619,0 0,8.29267 -65.27619,0 -24.49759,0 c -18.97108,0 -35.5827,11.40269 -40.7786,33.09457 -5.9934,24.86388 -6.25926,40.37937 0,66.34129 4.64005,19.32504 15.72116,33.09457 34.69224,33.09457 l 22.44345,0 0,-29.82315 c 0,-21.54546 18.64163,-40.55036 40.77859,-40.55036 l 65.20011,0 c 18.1494,0 32.63809,-14.94364 32.63809,-33.17065 l 0,-62.15692 c 0,-17.69022 -14.9237,-30.97902 -32.63809,-33.93144 -11.21348,-1.86664 -22.84843,-2.71464 -34.00752,-2.66278 z m -35.30088,20.0089 c 6.74257,0 12.2488,5.59613 12.2488,12.47703 -3e-5,6.85648 -5.50623,12.40095 -12.2488,12.40095 -6.76676,0 -12.24879,-5.54447 -12.24879,-12.40095 -3e-5,-6.8809 5.48203,-12.47703 12.24879,-12.47703 z"
     id="path1948"
     inkscape:connector-curvature="0" />
  <path
     style="fill:url(#linearGradient1475);fill-opacity:1"
     d="m 448.17473,217.7344 0,28.98627 c 0,22.47266 -19.05249,41.38723 -40.7786,41.38723 l -65.20011,0 c -17.85942,0 -32.63809,15.28523 -32.63809,33.17065 l 0,62.15691 c 0,17.69022 15.38286,28.09541 32.63809,33.17065 20.66277,6.07567 40.47728,7.1737 65.20011,0 16.43353,-4.75805 32.63809,-14.33364 32.63809,-33.17065 l 0,-24.87796 -65.2001,0 0,-8.29267 65.2001,0 32.6381,0 c 18.97108,0 26.04048,-13.23274 32.63807,-33.09457 6.81509,-20.44746 6.52511,-40.11099 0,-66.34129 -4.6884,-18.88583 -13.64287,-33.09457 -32.63807,-33.09457 l -24.49759,0 z m -36.67031,157.40842 c 6.76674,0 12.2488,5.54445 12.2488,12.40093 -3e-5,6.88087 -5.48206,12.47703 -12.2488,12.47703 -6.74259,0 -12.24879,-5.59616 -12.24879,-12.47703 0,-6.85648 5.50618,-12.40093 12.24879,-12.40093 z"
     id="path1950"
     inkscape:connector-curvature="0" />
  <ellipse
     style="opacity:0.44382025;fill:url(#radialGradient1480);fill-opacity:1;fill-rule:nonzero;stroke:none;stroke-width:20;stroke-miterlimit:4;stroke-dasharray:none;stroke-opacity:1"
     id="path1894"
     cx="375.57474"
     cy="458.86026"
     rx="87.47551"
     ry="16.962221" />
</svg>
